<svg width="50" height="50" viewBox="0 0 50 50" fill="none" xmlns="http://www.w3.org/2000/svg">
<rect width="50" height="50" rx="5" fill="#F5F8FA"/>
<path d="M25 15C29.9706 15 34 19.0294 34 24C34 28.9706 29.9706 33 25 33C20.0294 33 16 28.9706 16 24C16 19.0294 20.0294 15 25 15ZM21.7979 29.0732C22.7246 29.6594 23.8223 30 25 30C28.3137 30 31 27.3137 31 24C31 23.2745 30.8707 22.5793 30.6348 21.9355L21.7979 29.0732ZM25 18C21.6863 18 19 20.6863 19 24C19 25.0446 19.2679 26.0264 19.7373 26.8818L28.9229 19.4619C27.8709 18.5518 26.5002 18 25 18Z" fill="#FE4C4A"/>
</svg>
